<?xml version="1.0" encoding="UTF-8"?>
<svg xmlns="http://www.w3.org/2000/svg" baseProfile="tiny" version="1.2" viewBox="0 0 500 500">
  <rect width="500" height="500" fill="#ffffff"/>
  <defs>
    <radialGradient id="g1" cx="0.5" cy="0.4" r="0.7" gradientUnits="objectBoundingBox">
      <stop offset="0" stop-color="#2c9bd0"/>
      <stop offset="0.21" stop-color="#2a98cc"/>
      <stop offset="0.4" stop-color="#278fc1"/>
      <stop offset="0.57" stop-color="#2180b0"/>
      <stop offset="0.74" stop-color="#186a96"/>
      <stop offset="0.9" stop-color="#0e4f76"/>
      <stop offset="1" stop-color="#063b5e"/>
    </radialGradient>
  </defs>
  <g transform="translate(44,120)">
    <path fill="url(#g1)" d="M127.14,28.62l4.59-3.89,2.16-1.85,1.52-1.29v64.88c-0.48,0.32-0.95,0.64-1.43,0.95l-6.31,4.21c-0.14,0.09-0.32,0.21-0.53,0.34V28.62ZM141.02,16.83v65.88c2.78-1.88,5.54-3.78,8.27-5.71V9.8l-8.27,7.03ZM85.52,134.11l8.27,7.28V56.82l-0.04,0.04-5.75,4.96-2.48,2.24v70.06ZM149.29,115.72c-2.74-2.12-5.5-4.21-8.27-6.26v71.73l8.27,6.87v-72.33ZM168.76,0.07v34.92c1.33-3.28,2.94-6.46,4.78-9.52c1.09-1.82,2.32-3.44,3.67-4.98V0.07h-8.44ZM196.29,0.04v5.61s0.03-0.02,0.04-0.02c1.83-0.93,9.6-3.7,13.69-5.59h-13.73ZM160.74,0.07l-5.85,4.96v67.94c2.44-1.79,4.85-3.61,7.23-5.49l1.04-0.82V0.07h-2.42ZM182.81,0.04v14.76c1.18-1.09,2.41-2.13,3.74-3.12c1.35-0.99,2.73-1.94,4.14-2.83V0.04h-7.89ZM135.41,105.39c-2.72-1.94-5.48-3.84-8.27-5.71v69.92l8.27,6.94v-71.14ZM121.54,33.36l-4.42,3.74-3.85,3.28v117.66l0.81,0.67,7.46,6.21V33.36ZM79.92,69.12l-8.27,7.47v45.17l2.19,2.01,6.08,5.39v-60.04ZM107.67,45.14l-0.74,0.63-7.54,6.34v94.16l7.36,6.34,0.91,0.76V45.14ZM180.34,89.64h203.31c-9.41-4.29-20.6-6.69-30.57-7.42l-6.83-0.5-5.4-0.3h-163.8c0.83,2.65,1.96,5.49,3.29,8.22ZM201.05,13.28c-3.88,2.34-7.5,5.11-10.64,8.22h200.14s0.47-0.59,0.47-0.59c2.01-2.55,4.03-5.08,6.02-7.63h-195.99ZM350.85,141.61c-0.44,1.21-1.09,2.32-1.88,3.32h63.06c0.03-0.3,0.06-0.59,0.07-0.89l0.16-2.56c0.1-1.6,0.13-3.19,0.11-4.77h-60.61c-0.06,1.7-0.35,3.38-0.91,4.9ZM186.02,98.73c1.59,1.91,3.28,3.63,5.08,5.23h211.24c-2.57-3.34-5.62-6.23-9.02-8.72h-209.84c0.82,1.26,1.67,2.44,2.53,3.49ZM338.78,150.53c-0.57,0.09-1.15,0.15-1.74,0.15l-137.42,0.04c-0.74,0-1.41-0.04-2.05-0.19h-1.35v7.73h213.15c0.28-1,0.54-2.01,0.76-3.04c0.35-1.58,0.71-3.14,1.03-4.69h-72.39ZM178.05,40.93c-0.92,2.53-1.69,5.13-2.29,7.73h193.75c1.71-2.11,3.34-4.49,4.14-5.5l1.75-2.23h-197.35ZM174.72,54.26c-0.15,1.05-0.29,2.1-0.39,3.13c-0.13,1.37-0.17,2.93-0.14,4.6h61.3s0.01-0.05,0.02-0.07c1.07-2.95,2.68-5.19,5.5-6.73c0.64-0.35,1.3-0.65,1.97-0.93h-68.27ZM185.32,27.1c-1.88,2.54-3.51,5.31-4.92,8.22h199.36s6.33-8.17,6.33-8.17l0.04-0.05h-200.81ZM198.85,109.55c4.13,2.42,8.29,4.43,12.91,5.99c1.86,0.63,3.75,1.21,5.65,1.74h191.95c-0.87-2.68-2-5.25-3.37-7.73h-207.14ZM174.51,67.59c0.26,2.83,0.67,5.69,1.15,8.22h62.02c-2.04-2.37-3.05-5.25-3.13-8.22h-60.05ZM395.45,0.09l-51.18-0.09-66.25,0.08-13.24,0.22-7.75,0.2-6.48,0.21c-11.02,0.36-21.81,1.8-32.37,5.07c-1.85,0.57-3.54,1.22-5.25,1.89h188.34c1.77-2.42,3.47-4.89,5.08-7.46l-10.9-0.14ZM196.23,177.2v8.22h195.6c3.03-2.43,5.8-5.17,8.21-8.22h-203.81ZM196.23,163.86v7.73h207.62c0.62-1.07,1.21-2.18,1.75-3.31c0.7-1.46,1.33-2.93,1.91-4.42h-211.28ZM343.89,122.89c2.96,1.39,5.41,3.72,6.69,6.82c0.19,0.45,0.35,0.92,0.49,1.4h61.05c-0.25-2.78-0.73-5.46-1.31-8.22h-66.93ZM196.23,191.02v8.22h163.46c1.2-0.25,2.4-0.52,3.6-0.81c4.9-1.16,9.44-2.62,14.11-4.55c2.05-0.85,4.04-1.81,5.97-2.86h-187.14ZM43.9,0.07v199.17h8.27V0.07h-8.27ZM16.16,0.07v199.17h8.27V0.07h-8.27ZM2.29,0.07v199.17h8.27V0.07H2.29ZM154.89,120.1v72.67l4.59,4.1c0.91,0.81,1.81,1.6,2.73,2.36h0.95v-72.65l-8.27-6.49ZM168.76,130.98v68.26h8.35v-61.98c-2.82-2.02-5.58-4.1-8.35-6.27ZM185.79,143.16l-3.08-2.05v58.12h7.91v-52.88l-4.83-3.2ZM30.03,0.07v199.17h8.27V0.07h-8.27ZM65.66,76.35l0.2-8.21,0.19-13.44V0.07h-8.27v199.17h8.27v-38.39l-0.2-26.15-0.21-10.89-0.17-4.3-0.13-2.28c-0.01-0.23,0.5-0.65,0.71-0.59v-34.68l-0.08,0.08c-0.11,0.11-0.66,0-0.64-0.09c0.03-0.08,0.12-0.44,0.12-0.55l0.21-5.04Z"/>
    <path fill="#135180" d="M2.29,225.98h4.09v8.15l5.15-8.15h4.78l-6.63,10.09,7.21,10.35h-5.06l-5.43-8.01v8.01H2.29v-20.45Z"/>
    <path fill="#135180" d="M37.17,246.42l-4.12-7.81h-1.97v7.81h-4.09v-20.45h8.06c7.29,0,8.01,10.27,2,12.01l4.75,8.44h-4.63ZM31.08,234.64h3.6c2.77,0,2.77-4.58,0-4.58h-3.6v4.58Z"/>
    <path fill="#135180" d="M51.94,246.42v-20.45h4.09v20.45h-4.09Z"/>
    <path fill="#135180" d="M85.51,225.66h1.29v20.76h-4.15l0.03-11.41-5.23,5.49-5.23-5.49v11.41h-4.15v-20.76h1.32l8.06,8.98,8.06-8.98Z"/>
    <path fill="#135180" d="M98.83,246.42v-20.45h4.09v20.45h-4.09Z"/>
    <path fill="#135180" d="M118.32,246.42v-16.36h-5.09v-4.06h14.27v4.06h-5.09v16.36h-4.09Z"/>
    <path fill="#135180" d="M143,225.24h0.43l8.61,21.19h-4.6l-0.83-2.2h-6.78l-0.8,2.2h-4.63l8.61-21.19ZM145.08,240.39l-1.86-5.32-1.92,5.32h3.77Z"/>
    <path fill="#135180" d="M161.89,240.82c2.34,1.66,4.89,1.72,5.83,1.63c1.2-0.09,2.23-0.94,2.12-2.06c-0.09-1.17-0.97-1.69-2.12-2.09c-3.2-1.17-6.06-2.8-6.06-6.23s2.37-6.06,5.78-6.23c1.06-0.06,2.46-0.06,5.09,0.86l-0.51,3.95c-2.26-0.92-3.55-0.89-4.17-0.86c-1.46,0.09-2.12,1.14-2.03,2.29c0.11,1.14,1.12,1.66,2.29,2.06c3.17,1.17,5.92,3,5.92,6.26s-2.34,6-6.18,6.21c-1.14,0.09-3.69-0.06-6.46-1.49l0.52-4.29Z"/>
    <path fill="#135180" d="M196.77,240.82c2.34,1.66,4.89,1.72,5.83,1.63c1.2-0.09,2.23-0.94,2.12-2.06c-0.09-1.17-0.97-1.69-2.12-2.09c-3.2-1.17-6.06-2.8-6.06-6.23s2.37-6.06,5.78-6.23c1.06-0.06,2.46-0.06,5.09,0.86l-0.51,3.95c-2.26-0.92-3.55-0.89-4.17-0.86c-1.46,0.09-2.12,1.14-2.03,2.29c0.11,1.14,1.12,1.66,2.29,2.06c3.17,1.17,5.92,3,5.92,6.26s-2.35,6-6.18,6.21c-1.14,0.09-3.69-0.06-6.46-1.49l0.52-4.29Z"/>
    <path fill="#135180" d="M229.59,225.64c14.07,0,14.07,21.07,0,21.07s-14.07-21.07,0-21.07ZM229.59,229.84c-8.18,0-8.18,12.64,0,12.64s8.18-12.64,0-12.64Z"/>
    <path fill="#135180" d="M255.49,225.98v16.36h6.49v4.09h-10.58v-20.45h4.09Z"/>
    <path fill="#135180" d="M272.81,239.3v-13.33h4.09v13.3c0,4.29,6.63,4.29,6.63,0v-13.3h4.06v13.33c0,9.72-14.78,9.72-14.78,0Z"/>
    <path fill="#135180" d="M302.92,246.42v-16.36h-5.09v-4.06h14.27v4.06h-5.09v16.36h-4.09Z"/>
    <path fill="#135180" d="M322.61,246.42v-20.45h4.09v20.45h-4.09Z"/>
    <path fill="#135180" d="M348.57,225.64c14.07,0,14.07,21.07,0,21.07s-14.07-21.07,0-21.07ZM348.57,229.84c-8.18,0-8.18,12.64,0,12.64s8.18-12.64,0-12.64Z"/>
    <path fill="#135180" d="M374.47,246.42h-4.09v-20.87h1.09l10.32,12.01v-11.55h4.12v20.85h-1.09l-10.35-11.55v11.12Z"/>
    <path fill="#135180" d="M397.51,240.82c2.34,1.66,4.89,1.72,5.83,1.63c1.2-0.09,2.23-0.94,2.12-2.06c-0.08-1.17-0.97-1.69-2.12-2.09c-3.2-1.17-6.06-2.8-6.06-6.23s2.37-6.06,5.78-6.23c1.06-0.06,2.46-0.06,5.09,0.86l-0.51,3.95c-2.26-0.92-3.55-0.89-4.17-0.86c-1.46,0.09-2.12,1.14-2.03,2.29c0.11,1.14,1.12,1.66,2.29,2.06c3.17,1.17,5.92,3,5.92,6.26s-2.35,6-6.18,6.21c-1.14,0.09-3.69-0.06-6.46-1.49l0.51-4.29Z"/>
    <rect fill="#135180" x="41.05" y="258.35" width="318.07" height="0.94"/>
  </g>
</svg>
