<svg xmlns="http://www.w3.org/2000/svg" width="500" height="500" version="1.0" viewBox="0 0 375 375">
  <defs>
    <clipPath id="c">
      <path d="M0 0h375v375H0z"/>
    </clipPath>
    <clipPath id="b">
      <path d="M0 0h375v375H0z"/>
    </clipPath>
    <clipPath id="k">
      <path d="M0 0h375v375H0Zm0 0"/>
    </clipPath>
    <clipPath id="j">
      <path d="M0 0h375v375H0z"/>
    </clipPath>
    <clipPath id="h">
      <path d="M0 0h375v375H0z"/>
    </clipPath>
    <clipPath id="g">
      <path d="M0 0h375v375H0z"/>
    </clipPath>
    <clipPath id="e">
      <path d="M0 0h375v375H0z"/>
    </clipPath>
    <clipPath id="d">
      <path d="M0 0h375v375H0z"/>
    </clipPath>
    <clipPath id="q">
      <path d="M0 0h375v375H0Zm0 0"/>
    </clipPath>
    <clipPath id="p">
      <path d="M0 0h375v375H0z"/>
    </clipPath>
    <clipPath id="n">
      <path d="M0 0h375v375H0z"/>
    </clipPath>
    <clipPath id="m">
      <path d="M0 0h375v375H0z"/>
    </clipPath>
    <clipPath id="s">
      <path d="M0 0h125v21H0z"/>
    </clipPath>
    <clipPath id="t">
      <path d="M0 0h154v21H0z"/>
    </clipPath>
    <clipPath id="f">
      <path d="M0 0h375v375H0z"/>
    </clipPath>
    <linearGradient id="l" x1="231.094" x2="231.094" y1="-92.549" y2="687.636" gradientTransform="matrix(.48061 0 0 .48065 178.11 44.484)" gradientUnits="userSpaceOnUse">
      <stop offset="0" stop-color="#785C3A"/>
      <stop offset=".125" stop-color="#785C3A"/>
      <stop offset=".156" stop-color="#785C3A"/>
      <stop offset=".164" stop-color="#785C3A"/>
      <stop offset=".168" stop-color="#795D3B"/>
      <stop offset=".172" stop-color="#795D3B"/>
      <stop offset=".176" stop-color="#7C603E"/>
      <stop offset=".18" stop-color="#7F6240"/>
      <stop offset=".184" stop-color="#816542"/>
      <stop offset=".188" stop-color="#846845"/>
      <stop offset=".191" stop-color="#876A47"/>
      <stop offset=".195" stop-color="#896D4A"/>
      <stop offset=".199" stop-color="#8C6F4C"/>
      <stop offset=".203" stop-color="#8F724F"/>
      <stop offset=".207" stop-color="#917451"/>
      <stop offset=".211" stop-color="#947753"/>
      <stop offset=".215" stop-color="#977A56"/>
      <stop offset=".219" stop-color="#997C58"/>
      <stop offset=".223" stop-color="#9C7F5B"/>
      <stop offset=".227" stop-color="#9F815D"/>
      <stop offset=".23" stop-color="#A1845F"/>
      <stop offset=".234" stop-color="#A48662"/>
      <stop offset=".238" stop-color="#A78964"/>
      <stop offset=".242" stop-color="#A98B67"/>
      <stop offset=".246" stop-color="#AC8E69"/>
      <stop offset=".25" stop-color="#AF916B"/>
      <stop offset=".254" stop-color="#B1936E"/>
      <stop offset=".258" stop-color="#B49670"/>
      <stop offset=".262" stop-color="#B79873"/>
      <stop offset=".266" stop-color="#B99B75"/>
      <stop offset=".27" stop-color="#BC9D78"/>
      <stop offset=".273" stop-color="#BFA07A"/>
      <stop offset=".277" stop-color="#C1A37C"/>
      <stop offset=".281" stop-color="#C4A57F"/>
      <stop offset=".285" stop-color="#C7A881"/>
      <stop offset=".289" stop-color="#C9AA84"/>
      <stop offset=".293" stop-color="#CCAD86"/>
      <stop offset=".297" stop-color="#CFAF88"/>
      <stop offset=".301" stop-color="#D1B28B"/>
      <stop offset=".305" stop-color="#D4B48D"/>
      <stop offset=".309" stop-color="#D7B790"/>
      <stop offset=".313" stop-color="#D9BA92"/>
      <stop offset=".316" stop-color="#DCBC94"/>
      <stop offset=".32" stop-color="#DFBF97"/>
      <stop offset=".324" stop-color="#DFBF98"/>
      <stop offset=".328" stop-color="#E0C098"/>
      <stop offset=".332" stop-color="#DDBE96"/>
      <stop offset=".336" stop-color="#DBBB93"/>
      <stop offset=".34" stop-color="#D8B891"/>
      <stop offset=".344" stop-color="#D5B68F"/>
      <stop offset=".348" stop-color="#D3B38C"/>
      <stop offset=".352" stop-color="#D0B18A"/>
      <stop offset=".355" stop-color="#CDAE87"/>
      <stop offset=".359" stop-color="#CBAC85"/>
      <stop offset=".363" stop-color="#C8A983"/>
      <stop offset=".367" stop-color="#C5A780"/>
      <stop offset=".371" stop-color="#C3A47E"/>
      <stop offset=".375" stop-color="#C0A17B"/>
      <stop offset=".379" stop-color="#BD9F79"/>
      <stop offset=".383" stop-color="#BB9C76"/>
      <stop offset=".387" stop-color="#B89A74"/>
      <stop offset=".391" stop-color="#B59772"/>
      <stop offset=".395" stop-color="#B3956F"/>
      <stop offset=".398" stop-color="#B0926D"/>
      <stop offset=".402" stop-color="#AD8F6A"/>
      <stop offset=".406" stop-color="#AB8D68"/>
      <stop offset=".41" stop-color="#A88A66"/>
      <stop offset=".414" stop-color="#A58863"/>
      <stop offset=".418" stop-color="#A38561"/>
      <stop offset=".422" stop-color="#A0835E"/>
      <stop offset=".426" stop-color="#9D805C"/>
      <stop offset=".43" stop-color="#9B7D5A"/>
      <stop offset=".434" stop-color="#987B57"/>
      <stop offset=".438" stop-color="#957855"/>
      <stop offset=".441" stop-color="#937652"/>
      <stop offset=".445" stop-color="#907350"/>
      <stop offset=".449" stop-color="#8D714D"/>
      <stop offset=".453" stop-color="#8B6E4B"/>
      <stop offset=".457" stop-color="#886C49"/>
      <stop offset=".461" stop-color="#856946"/>
      <stop offset=".465" stop-color="#836644"/>
      <stop offset=".469" stop-color="#806441"/>
      <stop offset=".473" stop-color="#7E613F"/>
      <stop offset=".477" stop-color="#7B5F3D"/>
      <stop offset=".48" stop-color="#7A5E3C"/>
      <stop offset=".484" stop-color="#795D3B"/>
      <stop offset=".488" stop-color="#7B5E3C"/>
      <stop offset=".492" stop-color="#7C603D"/>
      <stop offset=".496" stop-color="#7D613F"/>
      <stop offset=".5" stop-color="#7E6240"/>
      <stop offset=".504" stop-color="#806341"/>
      <stop offset=".508" stop-color="#816542"/>
      <stop offset=".512" stop-color="#826643"/>
      <stop offset=".516" stop-color="#846744"/>
      <stop offset=".52" stop-color="#856845"/>
      <stop offset=".523" stop-color="#866A47"/>
      <stop offset=".527" stop-color="#886B48"/>
      <stop offset=".531" stop-color="#896C49"/>
      <stop offset=".535" stop-color="#8A6E4A"/>
      <stop offset=".539" stop-color="#8C6F4B"/>
      <stop offset=".543" stop-color="#8D704C"/>
      <stop offset=".547" stop-color="#8E714E"/>
      <stop offset=".551" stop-color="#8F734F"/>
      <stop offset=".555" stop-color="#917450"/>
      <stop offset=".559" stop-color="#927551"/>
      <stop offset=".563" stop-color="#937652"/>
      <stop offset=".566" stop-color="#957853"/>
      <stop offset=".57" stop-color="#967955"/>
      <stop offset=".574" stop-color="#977A56"/>
      <stop offset=".578" stop-color="#997B57"/>
      <stop offset=".582" stop-color="#9A7D58"/>
      <stop offset=".586" stop-color="#9B7E59"/>
      <stop offset=".59" stop-color="#9D7F5A"/>
      <stop offset=".594" stop-color="#9E805B"/>
      <stop offset=".598" stop-color="#9F825D"/>
      <stop offset=".602" stop-color="#A0835E"/>
      <stop offset=".605" stop-color="#A2845F"/>
      <stop offset=".609" stop-color="#A38560"/>
      <stop offset=".613" stop-color="#A48761"/>
      <stop offset=".617" stop-color="#A68862"/>
      <stop offset=".621" stop-color="#A78964"/>
      <stop offset=".625" stop-color="#A88A65"/>
      <stop offset=".629" stop-color="#AA8C66"/>
      <stop offset=".633" stop-color="#AB8D67"/>
      <stop offset=".641" stop-color="#AB8D67"/>
      <stop offset=".645" stop-color="#A98B66"/>
      <stop offset=".648" stop-color="#A88A64"/>
      <stop offset=".652" stop-color="#A78963"/>
      <stop offset=".656" stop-color="#A58862"/>
      <stop offset=".66" stop-color="#A48661"/>
      <stop offset=".664" stop-color="#A38560"/>
      <stop offset=".668" stop-color="#A1845F"/>
      <stop offset=".672" stop-color="#A0835D"/>
      <stop offset=".676" stop-color="#9F815C"/>
      <stop offset=".68" stop-color="#9D805B"/>
      <stop offset=".684" stop-color="#9C7F5A"/>
      <stop offset=".688" stop-color="#9B7D59"/>
      <stop offset=".691" stop-color="#9A7C58"/>
      <stop offset=".695" stop-color="#987B56"/>
      <stop offset=".699" stop-color="#977A55"/>
      <stop offset=".703" stop-color="#967854"/>
      <stop offset=".707" stop-color="#947753"/>
      <stop offset=".711" stop-color="#937652"/>
      <stop offset=".715" stop-color="#927551"/>
      <stop offset=".719" stop-color="#907350"/>
      <stop offset=".723" stop-color="#8F724E"/>
      <stop offset=".727" stop-color="#8E714D"/>
      <stop offset=".73" stop-color="#8C704C"/>
      <stop offset=".734" stop-color="#8B6E4B"/>
      <stop offset=".738" stop-color="#8A6D4A"/>
      <stop offset=".742" stop-color="#896C49"/>
      <stop offset=".746" stop-color="#876B47"/>
      <stop offset=".75" stop-color="#866946"/>
      <stop offset=".754" stop-color="#856845"/>
      <stop offset=".758" stop-color="#836744"/>
      <stop offset=".762" stop-color="#826643"/>
      <stop offset=".766" stop-color="#816442"/>
      <stop offset=".77" stop-color="#7F6341"/>
      <stop offset=".773" stop-color="#7E623F"/>
      <stop offset=".777" stop-color="#7D613E"/>
      <stop offset=".781" stop-color="#7B5F3D"/>
      <stop offset=".785" stop-color="#7A5E3C"/>
      <stop offset=".789" stop-color="#795D3B"/>
      <stop offset=".797" stop-color="#785C3A"/>
      <stop offset=".813" stop-color="#785C3A"/>
      <stop offset=".875" stop-color="#785C3A"/>
      <stop offset="1" stop-color="#785C3A"/>
    </linearGradient>
    <linearGradient id="r" x1="231.094" x2="231.094" y1="-92.549" y2="687.636" gradientTransform="matrix(.48061 0 0 .48065 48.112 44.484)" gradientUnits="userSpaceOnUse">
      <stop offset="0" stop-color="#785C3A"/>
      <stop offset=".125" stop-color="#785C3A"/>
      <stop offset=".156" stop-color="#785C3A"/>
      <stop offset=".164" stop-color="#785C3A"/>
      <stop offset=".168" stop-color="#795D3B"/>
      <stop offset=".172" stop-color="#795D3B"/>
      <stop offset=".176" stop-color="#7C603E"/>
      <stop offset=".18" stop-color="#7F6240"/>
      <stop offset=".184" stop-color="#816542"/>
      <stop offset=".188" stop-color="#846845"/>
      <stop offset=".191" stop-color="#876A47"/>
      <stop offset=".195" stop-color="#896D4A"/>
      <stop offset=".199" stop-color="#8C6F4C"/>
      <stop offset=".203" stop-color="#8F724F"/>
      <stop offset=".207" stop-color="#917451"/>
      <stop offset=".211" stop-color="#947753"/>
      <stop offset=".215" stop-color="#977A56"/>
      <stop offset=".219" stop-color="#997C58"/>
      <stop offset=".223" stop-color="#9C7F5B"/>
      <stop offset=".227" stop-color="#9F815D"/>
      <stop offset=".23" stop-color="#A1845F"/>
      <stop offset=".234" stop-color="#A48662"/>
      <stop offset=".238" stop-color="#A78964"/>
      <stop offset=".242" stop-color="#A98B67"/>
      <stop offset=".246" stop-color="#AC8E69"/>
      <stop offset=".25" stop-color="#AF916B"/>
      <stop offset=".254" stop-color="#B1936E"/>
      <stop offset=".258" stop-color="#B49670"/>
      <stop offset=".262" stop-color="#B79873"/>
      <stop offset=".266" stop-color="#B99B75"/>
      <stop offset=".27" stop-color="#BC9D78"/>
      <stop offset=".273" stop-color="#BFA07A"/>
      <stop offset=".277" stop-color="#C1A37C"/>
      <stop offset=".281" stop-color="#C4A57F"/>
      <stop offset=".285" stop-color="#C7A881"/>
      <stop offset=".289" stop-color="#C9AA84"/>
      <stop offset=".293" stop-color="#CCAD86"/>
      <stop offset=".297" stop-color="#CFAF88"/>
      <stop offset=".301" stop-color="#D1B28B"/>
      <stop offset=".305" stop-color="#D4B48D"/>
      <stop offset=".309" stop-color="#D7B790"/>
      <stop offset=".313" stop-color="#D9BA92"/>
      <stop offset=".316" stop-color="#DCBC94"/>
      <stop offset=".32" stop-color="#DFBF97"/>
      <stop offset=".324" stop-color="#DFBF98"/>
      <stop offset=".328" stop-color="#E0C098"/>
      <stop offset=".332" stop-color="#DDBE96"/>
      <stop offset=".336" stop-color="#DBBB93"/>
      <stop offset=".34" stop-color="#D8B891"/>
      <stop offset=".344" stop-color="#D5B68F"/>
      <stop offset=".348" stop-color="#D3B38C"/>
      <stop offset=".352" stop-color="#D0B18A"/>
      <stop offset=".355" stop-color="#CDAE87"/>
      <stop offset=".359" stop-color="#CBAC85"/>
      <stop offset=".363" stop-color="#C8A983"/>
      <stop offset=".367" stop-color="#C5A780"/>
      <stop offset=".371" stop-color="#C3A47E"/>
      <stop offset=".375" stop-color="#C0A17B"/>
      <stop offset=".379" stop-color="#BD9F79"/>
      <stop offset=".383" stop-color="#BB9C76"/>
      <stop offset=".387" stop-color="#B89A74"/>
      <stop offset=".391" stop-color="#B59772"/>
      <stop offset=".395" stop-color="#B3956F"/>
      <stop offset=".398" stop-color="#B0926D"/>
      <stop offset=".402" stop-color="#AD8F6A"/>
      <stop offset=".406" stop-color="#AB8D68"/>
      <stop offset=".41" stop-color="#A88A66"/>
      <stop offset=".414" stop-color="#A58863"/>
      <stop offset=".418" stop-color="#A38561"/>
      <stop offset=".422" stop-color="#A0835E"/>
      <stop offset=".426" stop-color="#9D805C"/>
      <stop offset=".43" stop-color="#9B7D5A"/>
      <stop offset=".434" stop-color="#987B57"/>
      <stop offset=".438" stop-color="#957855"/>
      <stop offset=".441" stop-color="#937652"/>
      <stop offset=".445" stop-color="#907350"/>
      <stop offset=".449" stop-color="#8D714D"/>
      <stop offset=".453" stop-color="#8B6E4B"/>
      <stop offset=".457" stop-color="#886C49"/>
      <stop offset=".461" stop-color="#856946"/>
      <stop offset=".465" stop-color="#836644"/>
      <stop offset=".469" stop-color="#806441"/>
      <stop offset=".473" stop-color="#7E613F"/>
      <stop offset=".477" stop-color="#7B5F3D"/>
      <stop offset=".48" stop-color="#7A5E3C"/>
      <stop offset=".484" stop-color="#795D3B"/>
      <stop offset=".488" stop-color="#7B5E3C"/>
      <stop offset=".492" stop-color="#7C603D"/>
      <stop offset=".496" stop-color="#7D613F"/>
      <stop offset=".5" stop-color="#7E6240"/>
      <stop offset=".504" stop-color="#806341"/>
      <stop offset=".508" stop-color="#816542"/>
      <stop offset=".512" stop-color="#826643"/>
      <stop offset=".516" stop-color="#846744"/>
      <stop offset=".52" stop-color="#856845"/>
      <stop offset=".523" stop-color="#866A47"/>
      <stop offset=".527" stop-color="#886B48"/>
      <stop offset=".531" stop-color="#896C49"/>
      <stop offset=".535" stop-color="#8A6E4A"/>
      <stop offset=".539" stop-color="#8C6F4B"/>
      <stop offset=".543" stop-color="#8D704C"/>
      <stop offset=".547" stop-color="#8E714E"/>
      <stop offset=".551" stop-color="#8F734F"/>
      <stop offset=".555" stop-color="#917450"/>
      <stop offset=".559" stop-color="#927551"/>
      <stop offset=".563" stop-color="#937652"/>
      <stop offset=".566" stop-color="#957853"/>
      <stop offset=".57" stop-color="#967955"/>
      <stop offset=".574" stop-color="#977A56"/>
      <stop offset=".578" stop-color="#997B57"/>
      <stop offset=".582" stop-color="#9A7D58"/>
      <stop offset=".586" stop-color="#9B7E59"/>
      <stop offset=".59" stop-color="#9D7F5A"/>
      <stop offset=".594" stop-color="#9E805B"/>
      <stop offset=".598" stop-color="#9F825D"/>
      <stop offset=".602" stop-color="#A0835E"/>
      <stop offset=".605" stop-color="#A2845F"/>
      <stop offset=".609" stop-color="#A38560"/>
      <stop offset=".613" stop-color="#A48761"/>
      <stop offset=".617" stop-color="#A68862"/>
      <stop offset=".621" stop-color="#A78964"/>
      <stop offset=".625" stop-color="#A88A65"/>
      <stop offset=".629" stop-color="#AA8C66"/>
      <stop offset=".633" stop-color="#AB8D67"/>
      <stop offset=".641" stop-color="#AB8D67"/>
      <stop offset=".645" stop-color="#A98B66"/>
      <stop offset=".648" stop-color="#A88A64"/>
      <stop offset=".652" stop-color="#A78963"/>
      <stop offset=".656" stop-color="#A58862"/>
      <stop offset=".66" stop-color="#A48661"/>
      <stop offset=".664" stop-color="#A38560"/>
      <stop offset=".668" stop-color="#A1845F"/>
      <stop offset=".672" stop-color="#A0835D"/>
      <stop offset=".676" stop-color="#9F815C"/>
      <stop offset=".68" stop-color="#9D805B"/>
      <stop offset=".684" stop-color="#9C7F5A"/>
      <stop offset=".688" stop-color="#9B7D59"/>
      <stop offset=".691" stop-color="#9A7C58"/>
      <stop offset=".695" stop-color="#987B56"/>
      <stop offset=".699" stop-color="#977A55"/>
      <stop offset=".703" stop-color="#967854"/>
      <stop offset=".707" stop-color="#947753"/>
      <stop offset=".711" stop-color="#937652"/>
      <stop offset=".715" stop-color="#927551"/>
      <stop offset=".719" stop-color="#907350"/>
      <stop offset=".723" stop-color="#8F724E"/>
      <stop offset=".727" stop-color="#8E714D"/>
      <stop offset=".73" stop-color="#8C704C"/>
      <stop offset=".734" stop-color="#8B6E4B"/>
      <stop offset=".738" stop-color="#8A6D4A"/>
      <stop offset=".742" stop-color="#896C49"/>
      <stop offset=".746" stop-color="#876B47"/>
      <stop offset=".75" stop-color="#866946"/>
      <stop offset=".754" stop-color="#856845"/>
      <stop offset=".758" stop-color="#836744"/>
      <stop offset=".762" stop-color="#826643"/>
      <stop offset=".766" stop-color="#816442"/>
      <stop offset=".77" stop-color="#7F6341"/>
      <stop offset=".773" stop-color="#7E623F"/>
      <stop offset=".777" stop-color="#7D613E"/>
      <stop offset=".781" stop-color="#7B5F3D"/>
      <stop offset=".785" stop-color="#7A5E3C"/>
      <stop offset=".789" stop-color="#795D3B"/>
      <stop offset=".797" stop-color="#785C3A"/>
      <stop offset=".813" stop-color="#785C3A"/>
      <stop offset=".875" stop-color="#785C3A"/>
      <stop offset="1" stop-color="#785C3A"/>
    </linearGradient>
    <mask id="i">
      <g filter="url(#a)">
        <g clip-path="url(#b)">
          <g clip-path="url(#c)">
            <path d="M341.656 102.621v31.11H217.234v31.109h93.328c5.695 0 10.91 1.398 15.64 4.187 4.727 2.782 8.485 6.54 11.266 11.266 2.79 4.73 4.188 9.95 4.188 15.656v31.094c0 5.711-1.399 10.93-4.188 15.656-2.781 4.73-6.539 8.492-11.266 11.282-4.73 2.78-9.945 4.171-15.64 4.171H186.14v-31.109h124.422V195.95h-93.328c-5.7 0-10.914-1.39-15.64-4.172-4.731-2.789-8.493-6.55-11.282-11.28-2.781-4.74-4.172-9.958-4.172-15.657v-31.11c0-5.695 1.39-10.91 4.172-15.64 2.789-4.738 6.55-8.5 11.281-11.281 4.727-2.79 9.941-4.188 15.64-4.188Zm0 0"/>
          </g>
        </g>
      </g>
    </mask>
    <mask id="o">
      <g filter="url(#a)">
        <g clip-path="url(#d)">
          <g clip-path="url(#e)">
            <path d="M211.657 102.621v31.11h-31.094l-46.671 46.656 46.671 46.656h31.094v31.11H174.33c-4.406 0-8.164-1.555-11.266-4.672l-57.546-57.532H87.235v62.203H56.142v-155.53h31.093v62.218h18.282l57.546-57.547c3.102-3.113 6.86-4.672 11.266-4.672Zm0 0"/>
          </g>
        </g>
      </g>
    </mask>
    <filter id="a" width="100%" height="100%" x="0%" y="0%">
      <feColorMatrix color-interpolation-filters="sRGB" values="0 0 0 0 1 0 0 0 0 1 0 0 0 0 1 0 0 0 1 0"/>
    </filter>
  </defs>
  <g clip-path="url(#f)">
    <g clip-path="url(#g)">
      <path fill="#281a36" d="M317.448 100.503v31.11H193.026v31.109h93.328c5.695 0 10.91 1.398 15.64 4.188 4.727 2.78 8.485 6.539 11.266 11.265 2.79 4.73 4.188 9.95 4.188 15.656v31.094c0 5.711-1.399 10.93-4.188 15.656-2.781 4.73-6.539 8.493-11.265 11.282-4.73 2.78-9.946 4.172-15.641 4.172H161.932v-31.11h124.422v-31.094h-93.328c-5.7 0-10.914-1.39-15.64-4.171-4.731-2.79-8.493-6.551-11.282-11.282-2.781-4.738-4.172-9.957-4.172-15.656v-31.11c0-5.695 1.39-10.91 4.172-15.64 2.789-4.738 6.55-8.5 11.281-11.281 4.727-2.79 9.942-4.188 15.64-4.188Zm0 0"/>
      <g clip-path="url(#h)">
        <g mask="url(#i)">
          <g clip-path="url(#j)">
            <g clip-path="url(#k)">
              <path fill="url(#l)" d="M-279.06-279.06h933.12v933.12h-933.12z"/>
            </g>
          </g>
        </g>
      </g>
    </g>
    <g clip-path="url(#m)">
      <path fill="#281a36" d="M187.45 100.503v31.11h-31.094l-46.672 46.656 46.672 46.656h31.093v31.11h-37.328c-4.406 0-8.164-1.555-11.265-4.672L81.309 193.83H63.027v62.204H31.934V100.503h31.093v62.219H81.31l57.547-57.547c3.101-3.113 6.859-4.672 11.265-4.672Zm0 0"/>
      <g clip-path="url(#n)">
        <g mask="url(#o)">
          <g clip-path="url(#p)">
            <g clip-path="url(#q)">
              <path fill="url(#r)" d="M-279.06-279.06h933.12v933.12h-933.12z"/>
            </g>
          </g>
        </g>
      </g>
    </g>
    <g fill="#281a36" clip-path="url(#s)" transform="translate(57 273)">
      <path d="M1.727 15.472V1.597h2.78v5.531l3.5-5.531h3.235l-4.5 6.844 4.89 7.03H8.196l-3.687-5.437v5.438ZM25.467 15.472l-2.797-5.297h-1.344v5.297h-2.781V1.597h5.484c.82 0 1.52.172 2.094.515a3.768 3.768 0 0 1 1.36 1.344c.32.543.519 1.137.593 1.781a4.601 4.601 0 0 1-.14 1.875 4.185 4.185 0 0 1-.907 1.641c-.418.469-.965.805-1.64 1l3.218 5.719Zm-4.14-8h2.437c.375 0 .675-.098.906-.297.226-.207.379-.469.453-.781a1.816 1.816 0 0 0 0-.938 1.432 1.432 0 0 0-.453-.765c-.23-.208-.531-.313-.906-.313h-2.438ZM38.32 15.472h-2.782V1.597h2.781ZM52.912 7.472l5.469-6.094h.875v14.094h-2.813l.016-7.75-3.547 3.734-3.562-3.734v7.75h-2.813V1.378h.89ZM70.249 15.472h-2.781V1.597h2.781ZM83.545 15.472h-2.781V4.378H77.31V1.612h9.687v2.766h-3.453ZM91.723 15.472l5.844-14.375h.281l5.844 14.375h-3.125l-.563-1.5h-4.593l-.547 1.5Zm4.688-4.094h2.562l-1.25-3.61ZM110.086 14.581l.36-2.906c.53.375 1.054.648 1.577.812.52.157.993.25 1.422.282.426.023.742.023.953 0 .414-.02.77-.16 1.063-.422.289-.27.414-.594.375-.969-.024-.406-.172-.707-.453-.906a3.656 3.656 0 0 0-.985-.516 14.647 14.647 0 0 1-2.03-.937 4.645 4.645 0 0 1-1.516-1.328c-.376-.532-.563-1.18-.563-1.954 0-.78.16-1.484.484-2.109a3.921 3.921 0 0 1 1.391-1.5c.594-.383 1.273-.594 2.047-.625.351-.031.789-.02 1.312.031.532.055 1.243.235 2.141.547l-.36 2.672c-.761-.3-1.37-.473-1.828-.516-.449-.05-.78-.07-1-.062-.492.031-.851.203-1.078.516a1.48 1.48 0 0 0-.296 1.046c.039.387.207.68.5.875.3.2.648.371 1.046.516.727.262 1.395.586 2 .969a4.737 4.737 0 0 1 1.47 1.375c.362.531.546 1.168.546 1.906 0 .762-.168 1.453-.5 2.078a3.84 3.84 0 0 1-1.453 1.485c-.625.375-1.371.585-2.234.64-.262.02-.618.008-1.063-.031a8.503 8.503 0 0 1-1.516-.266 8.619 8.619 0 0 1-1.812-.703Zm0 0"/>
    </g>
    <g fill="#281a36" clip-path="url(#t)" transform="translate(187 273)">
      <path d="m1.775 14.61.36-2.906c.53.375 1.054.649 1.578.813.52.156.992.25 1.421.28.426.024.743.028.954.017a1.675 1.675 0 0 0 1.046-.438c.29-.27.422-.594.391-.969-.031-.394-.184-.695-.453-.906a3.33 3.33 0 0 0-.984-.5 14.999 14.999 0 0 1-2.032-.953A4.645 4.645 0 0 1 2.541 7.72c-.375-.531-.563-1.18-.563-1.953 0-.77.16-1.47.485-2.094a3.91 3.91 0 0 1 1.39-1.516c.594-.375 1.27-.582 2.031-.625.364-.02.805-.004 1.329.047.53.055 1.238.235 2.125.547l-.344 2.672c-.762-.313-1.371-.488-1.828-.531-.45-.051-.782-.067-1-.047-.492.023-.852.187-1.078.5-.23.312-.329.664-.297 1.047.031.386.191.683.484.89.3.2.656.368 1.063.5a10.28 10.28 0 0 1 1.984.97A4.737 4.737 0 0 1 9.791 9.5c.375.531.562 1.168.562 1.906 0 .762-.172 1.453-.515 2.078a3.841 3.841 0 0 1-1.438 1.5c-.625.368-1.371.57-2.234.625-.262.02-.617.008-1.063-.03a8.475 8.475 0 0 1-1.531-.266 8.762 8.762 0 0 1-1.797-.704ZM24.45 15.689c-1.187 0-2.23-.196-3.125-.594-.898-.406-1.648-.945-2.25-1.625a6.934 6.934 0 0 1-1.344-2.297 8.012 8.012 0 0 1-.437-2.625c0-.895.144-1.77.437-2.625.301-.852.75-1.617 1.344-2.297.602-.676 1.352-1.21 2.25-1.61.895-.406 1.938-.609 3.125-.609 1.188 0 2.227.203 3.125.61.906.398 1.656.933 2.25 1.61a6.839 6.839 0 0 1 1.328 2.296 7.828 7.828 0 0 1 0 5.25 6.764 6.764 0 0 1-1.328 2.297c-.594.68-1.344 1.219-2.25 1.625-.898.398-1.937.594-3.125.594Zm0-2.86c.79 0 1.469-.156 2.031-.469a3.74 3.74 0 0 0 1.36-1.234c.344-.508.57-1.066.687-1.672a4.96 4.96 0 0 0 0-1.828 4.515 4.515 0 0 0-.687-1.672 3.775 3.775 0 0 0-1.36-1.234c-.562-.313-1.242-.469-2.03-.469-.794 0-1.477.156-2.048.469a3.758 3.758 0 0 0-1.343 1.234 4.794 4.794 0 0 0-.688 1.672 4.797 4.797 0 0 0 0 1.828c.125.606.352 1.164.688 1.672.332.512.78.922 1.343 1.234.57.313 1.254.47 2.047.47ZM39.309 1.642h2.78v11.093h4.391v2.766H39.31ZM63.926 10.673c0 .95-.184 1.762-.547 2.437a4.584 4.584 0 0 1-1.437 1.61 5.191 5.191 0 0 1-1.954.797 5.8 5.8 0 0 1-2.14 0 5.185 5.185 0 0 1-1.969-.797 4.547 4.547 0 0 1-1.437-1.61c-.368-.675-.547-1.488-.547-2.437V1.642h2.781v9.015c0 .586.148 1.055.453 1.407.3.343.676.574 1.125.687.445.117.89.117 1.328 0 .446-.113.82-.344 1.125-.687.313-.352.469-.82.469-1.407V1.642h2.75ZM77.152 15.501h-2.766V4.407h-3.453v-2.75h9.672v2.75h-3.453ZM90.582 15.501h-2.78V1.641h2.78ZM105.472 15.689c-1.188 0-2.23-.196-3.125-.594-.899-.406-1.649-.945-2.25-1.625a6.934 6.934 0 0 1-1.344-2.297 8.012 8.012 0 0 1-.438-2.625c0-.895.145-1.77.438-2.625.3-.852.75-1.617 1.344-2.297.601-.676 1.351-1.21 2.25-1.61.894-.406 1.937-.609 3.125-.609 1.187 0 2.226.203 3.125.61.906.398 1.656.933 2.25 1.61a6.839 6.839 0 0 1 1.328 2.296 7.828 7.828 0 0 1 0 5.25 6.764 6.764 0 0 1-1.328 2.297c-.594.68-1.344 1.219-2.25 1.625-.899.398-1.938.594-3.125.594Zm0-2.86c.789 0 1.468-.156 2.03-.469a3.74 3.74 0 0 0 1.36-1.234c.344-.508.57-1.066.688-1.672a4.96 4.96 0 0 0 0-1.828 4.515 4.515 0 0 0-.688-1.672 3.775 3.775 0 0 0-1.36-1.234c-.562-.313-1.241-.469-2.03-.469-.793 0-1.477.156-2.047.469a3.758 3.758 0 0 0-1.344 1.234 4.794 4.794 0 0 0-.687 1.672 4.797 4.797 0 0 0 0 1.828c.125.606.351 1.164.687 1.672.332.512.781.922 1.344 1.234.57.313 1.254.47 2.047.47ZM123.111 7.954v7.547h-2.78V1.345h.733l7 8.14V1.657h2.797v14.14h-.734ZM138.446 14.61l.36-2.906c.53.375 1.054.649 1.578.813.52.156.992.25 1.422.28.425.024.742.028.953.017a1.675 1.675 0 0 0 1.047-.438c.289-.27.421-.594.39-.969-.031-.394-.183-.695-.453-.906a3.33 3.33 0 0 0-.984-.5 14.999 14.999 0 0 1-2.032-.953 4.645 4.645 0 0 1-1.515-1.328c-.375-.531-.563-1.18-.563-1.953 0-.77.16-1.47.485-2.094a3.91 3.91 0 0 1 1.39-1.516c.594-.375 1.27-.582 2.032-.625.363-.02.804-.004 1.328.047.531.055 1.238.235 2.125.547l-.344 2.672c-.762-.313-1.371-.488-1.828-.531-.45-.051-.781-.067-1-.047-.492.023-.852.187-1.078.5-.23.312-.328.664-.297 1.047.031.386.191.683.484.89.301.2.656.368 1.063.5a10.28 10.28 0 0 1 1.984.97 4.737 4.737 0 0 1 1.469 1.374c.375.531.562 1.168.562 1.906 0 .762-.172 1.453-.515 2.078a3.841 3.841 0 0 1-1.438 1.5c-.625.368-1.37.57-2.234.625-.262.02-.617.008-1.063-.03a8.475 8.475 0 0 1-1.53-.266 8.762 8.762 0 0 1-1.798-.704Zm0 0"/>
    </g>
  </g>
</svg>
