<?xml version="1.0" encoding="UTF-8"?><svg id="Layer_1" xmlns="http://www.w3.org/2000/svg" xmlns:xlink="http://www.w3.org/1999/xlink" viewBox="0 0 407.3 256.09"><defs><style>.cls-1{fill:url(#radial-gradient);}.cls-2{fill:#135180;}</style><radialGradient id="radial-gradient" cx="199.12" cy="94.61" fx="235.91" fy="128.35" r="150.49" gradientTransform="translate(327.11 -103.57) rotate(90.43) scale(1 1.34)" gradientUnits="userSpaceOnUse"><stop offset="0" stop-color="#2c9bd0"/><stop offset=".21" stop-color="#2a98cc"/><stop offset=".4" stop-color="#278fc1"/><stop offset=".57" stop-color="#2180b0"/><stop offset=".74" stop-color="#186a96"/><stop offset=".9" stop-color="#0e4f76"/><stop offset="1" stop-color="#063b5e"/></radialGradient></defs><path id="Pattern" class="cls-1" d="M125.57,28.26l4.54-3.84,2.13-1.83,1.5-1.27v64.08c-.47.31-.94.63-1.41.94l-6.24,4.15c-.14.09-.32.2-.52.34V28.26ZM139.28,16.62v65.07c2.74-1.86,5.47-3.73,8.17-5.64V9.68l-8.17,6.94ZM84.47,132.46l8.17,7.19V56.12l-.04.04-5.68,4.9-2.45,2.21v69.19ZM147.45,114.3c-2.71-2.1-5.43-4.16-8.17-6.18v70.84l8.17,6.78v-71.44ZM166.68.07v34.49c1.31-3.24,2.9-6.38,4.72-9.4,1.08-1.8,2.29-3.4,3.62-4.92V.07h-8.34ZM193.87.04v5.54s.03-.02.04-.02c1.81-.92,9.48-3.66,13.52-5.52h-13.56ZM158.75.07l-5.78,4.9v67.11c2.41-1.76,4.79-3.57,7.14-5.42l1.03-.81V.07h-2.39ZM180.55.04v14.58c1.17-1.08,2.38-2.11,3.7-3.08,1.34-.98,2.7-1.91,4.09-2.8V.04h-7.79ZM133.74,104.09c-2.69-1.92-5.41-3.8-8.17-5.64v69.06l8.17,6.85v-70.27ZM120.04,32.95l-4.37,3.7-3.8,3.24v116.21l.8.67,7.37,6.14V32.95ZM78.94,68.26l-8.17,7.38v44.61l2.16,1.99,6.01,5.32v-59.3ZM106.34,44.59l-.73.62-7.44,6.26v93l7.27,6.26.9.75V44.59ZM178.12,88.53h200.8c-9.29-4.23-20.34-6.6-30.19-7.33l-6.75-.5-5.34-.3h-161.78c.82,2.62,1.94,5.42,3.25,8.12ZM198.57,13.12c-3.83,2.31-7.41,5.05-10.51,8.12h197.67s.46-.58.46-.58c1.98-2.52,3.98-5.01,5.95-7.54h-193.57ZM346.53,139.86c-.44,1.19-1.08,2.29-1.86,3.28h62.28c.03-.29.06-.59.07-.88l.16-2.53c.1-1.58.13-3.15.11-4.71h-59.87c-.06,1.68-.35,3.34-.9,4.84ZM183.72,97.51c1.57,1.88,3.24,3.59,5.02,5.16h208.64c-2.54-3.3-5.55-6.16-8.91-8.61h-207.25c.81,1.25,1.65,2.41,2.5,3.44ZM334.6,148.68c-.57.09-1.14.14-1.72.14l-135.72.04c-.73,0-1.39-.04-2.02-.19h-1.33v7.63h210.52c.28-.99.53-1.99.76-3,.35-1.56.7-3.1,1.01-4.64h-71.5ZM175.86,40.42c-.91,2.5-1.67,5.06-2.26,7.63h191.36c1.69-2.08,3.3-4.43,4.09-5.43l1.73-2.2h-194.92ZM172.56,53.59c-.15,1.04-.28,2.07-.38,3.1-.13,1.35-.17,2.89-.14,4.54h60.54s.01-.05.02-.07c1.06-2.91,2.65-5.13,5.44-6.65.63-.34,1.29-.64,1.95-.92h-67.43ZM183.04,26.77c-1.85,2.5-3.47,5.24-4.86,8.12h196.9s6.25-8.07,6.25-8.07l.04-.05h-198.34ZM196.4,108.2c4.08,2.39,8.19,4.38,12.75,5.92,1.84.62,3.7,1.2,5.58,1.71h189.59c-.86-2.65-1.98-5.18-3.33-7.63h-204.58ZM172.36,66.76c.26,2.8.66,5.62,1.14,8.12h61.26c-2.02-2.34-3.01-5.19-3.09-8.12h-59.31ZM390.57.09l-50.54-.09-65.43.08-13.07.22-7.66.2-6.4.21c-10.89.35-21.54,1.78-31.97,5.01-1.82.56-3.49,1.2-5.19,1.86h186.02c1.74-2.39,3.43-4.83,5.01-7.36l-10.77-.13ZM193.81,175.01v8.12h193.19c3-2.4,5.72-5.11,8.11-8.12h-201.3ZM193.81,161.84v7.63h205.06c.61-1.06,1.19-2.15,1.72-3.27.69-1.44,1.31-2.89,1.89-4.37h-208.67ZM339.65,121.37c2.92,1.38,5.35,3.68,6.6,6.74.18.45.35.91.49,1.38h60.3c-.25-2.75-.72-5.4-1.29-8.12h-66.1ZM193.81,188.66v8.12h161.44c1.18-.25,2.37-.51,3.56-.8,4.84-1.15,9.32-2.58,13.93-4.5,2.02-.84,3.99-1.78,5.9-2.83h-184.83ZM43.36.07v196.72h8.17V.07h-8.17ZM15.96.07v196.72h8.17V.07h-8.17ZM2.26.07v196.72h8.17V.07H2.26ZM152.98,118.62v71.77l4.53,4.05c.9.8,1.79,1.58,2.7,2.34h.94v-71.75l-8.17-6.41ZM166.68,129.37v67.42h8.25v-61.22c-2.78-1.99-5.51-4.05-8.25-6.2ZM183.5,141.4l-3.04-2.02v57.41h7.81v-52.23l-4.77-3.16ZM29.66.07v196.72h8.17V.07h-8.17ZM64.85,75.41l.19-8.11.19-13.28V.07h-8.17v196.72h8.17v-37.92l-.19-25.82-.2-10.76-.17-4.25-.13-2.25c-.01-.22.49-.64.7-.58v-34.26l-.08.07c-.11.11-.65,0-.63-.09.02-.08.12-.43.12-.54l.2-4.98Z"/><g id="Text"><path class="cls-2" d="M2.26,223.2h4.04v8.04l5.08-8.04h4.71l-6.55,9.96,7.11,10.22h-5l-5.36-7.9v7.9H2.26v-20.18Z"/><path class="cls-2" d="M36.7,243.38l-4.06-7.71h-1.95v7.71h-4.04v-20.18h7.96c7.2,0,7.9,10.13,1.98,11.86l4.69,8.33h-4.57ZM30.69,231.75h3.56c2.74,0,2.74-4.52,0-4.52h-3.56v4.52Z"/><path class="cls-2" d="M51.3,243.38v-20.18h4.04v20.18h-4.04Z"/><path class="cls-2" d="M84.45,222.89h1.27v20.49h-4.09l.03-11.26-5.17,5.42-5.17-5.42v11.26h-4.09v-20.49h1.3l7.96,8.86,7.96-8.86Z"/><path class="cls-2" d="M97.61,243.38v-20.18h4.04v20.18h-4.04Z"/><path class="cls-2" d="M116.86,243.38v-16.15h-5.02v-4.01h14.09v4.01h-5.02v16.15h-4.04Z"/><path class="cls-2" d="M141.23,222.47h.42l8.5,20.92h-4.54l-.82-2.17h-6.69l-.79,2.17h-4.57l8.5-20.92ZM143.29,237.43l-1.83-5.25-1.89,5.25h3.73Z"/><path class="cls-2" d="M159.89,237.85c2.31,1.64,4.83,1.69,5.76,1.61,1.19-.08,2.2-.93,2.09-2.03-.08-1.16-.96-1.67-2.09-2.06-3.16-1.16-5.98-2.77-5.98-6.15s2.34-5.98,5.7-6.15c1.04-.06,2.43-.06,5.02.85l-.51,3.9c-2.23-.9-3.5-.88-4.12-.85-1.44.08-2.09,1.13-2,2.26.11,1.13,1.1,1.64,2.26,2.03,3.13,1.16,5.84,2.96,5.84,6.18s-2.31,5.93-6.1,6.12c-1.13.08-3.64-.06-6.38-1.47l.51-4.23Z"/><path class="cls-2" d="M194.34,237.85c2.31,1.64,4.83,1.69,5.76,1.61,1.19-.08,2.2-.93,2.09-2.03-.08-1.16-.96-1.67-2.09-2.06-3.16-1.16-5.98-2.77-5.98-6.15s2.34-5.98,5.7-6.15c1.04-.06,2.43-.06,5.03.85l-.51,3.9c-2.23-.9-3.5-.88-4.12-.85-1.44.08-2.09,1.13-2,2.26.11,1.13,1.1,1.64,2.26,2.03,3.13,1.16,5.84,2.96,5.84,6.18s-2.31,5.93-6.1,6.12c-1.13.08-3.64-.06-6.38-1.47l.51-4.23Z"/><path class="cls-2" d="M226.76,222.86c13.89,0,13.89,20.8,0,20.8s-13.89-20.8,0-20.8ZM226.76,227.01c-8.07,0-8.07,12.48,0,12.48s8.07-12.48,0-12.48Z"/><path class="cls-2" d="M252.34,223.2v16.15h6.41v4.04h-10.45v-20.18h4.04Z"/><path class="cls-2" d="M269.45,236.35v-13.15h4.04v13.13c0,4.23,6.55,4.23,6.55,0v-13.13h4.01v13.15c0,9.6-14.59,9.6-14.59,0Z"/><path class="cls-2" d="M299.18,243.38v-16.15h-5.02v-4.01h14.09v4.01h-5.02v16.15h-4.04Z"/><path class="cls-2" d="M318.64,243.38v-20.18h4.04v20.18h-4.04Z"/><path class="cls-2" d="M344.27,222.86c13.89,0,13.89,20.8,0,20.8s-13.89-20.8,0-20.8ZM344.27,227.01c-8.07,0-8.07,12.48,0,12.48s8.07-12.48,0-12.48Z"/><path class="cls-2" d="M369.85,243.38h-4.04v-20.61h1.07l10.19,11.86v-11.4h4.07v20.58h-1.07l-10.22-11.41v10.98Z"/><path class="cls-2" d="M392.61,237.85c2.31,1.64,4.83,1.69,5.76,1.61,1.19-.08,2.2-.93,2.09-2.03-.08-1.16-.96-1.67-2.09-2.06-3.16-1.16-5.98-2.77-5.98-6.15s2.34-5.98,5.7-6.15c1.04-.06,2.43-.06,5.02.85l-.51,3.9c-2.23-.9-3.5-.88-4.12-.85-1.44.08-2.09,1.13-2,2.26.11,1.13,1.1,1.64,2.26,2.03,3.13,1.16,5.84,2.96,5.84,6.18s-2.31,5.93-6.1,6.12c-1.13.08-3.64-.06-6.38-1.47l.51-4.23Z"/><rect class="cls-2" x="40.55" y="255.17" width="314.15" height=".92"/></g></svg>
