<?xml version="1.0" encoding="UTF-8"?>
<svg xmlns="http://www.w3.org/2000/svg"
     baseProfile="tiny"
     version="1.2"
     viewBox="0 0 500 500">
  <!-- White Background -->
  <rect width="500" height="500" fill="#ffffff"/>
  
  <!-- Gradient Definition -->
  <defs>
    <radialGradient id="g1" cx="50%" cy="40%" r="70%">
      <stop offset="0%" stop-color="#2c9bd0"/>
      <stop offset="21%" stop-color="#2a98cc"/>
      <stop offset="40%" stop-color="#278fc1"/>
      <stop offset="57%" stop-color="#2180b0"/>
      <stop offset="74%" stop-color="#186a96"/>
      <stop offset="90%" stop-color="#0e4f76"/>
      <stop offset="100%" stop-color="#063b5e"/>
    </radialGradient>
  </defs>
  
  <!-- Logo Group (Centered & Scaled) -->
  <g transform="translate(44, 120) scale(1)">
    <!-- Main Shape (Gradient Fill) -->
    <path fill="url(#g1)" d="M127.14,28.62l4.59-3.89,2.16-1.85,1.52-1.29v64.88c-.48.32-.95.64-1.43.95l-6.31,4.21c-.14.09-.32.21-.53.34V28.62ZM141.02,16.83v65.88c2.78-1.88,5.54-3.78,8.27-5.71V9.8l-8.27,7.03ZM85.52,134.11l8.27,7.28V56.82l-.04.04-5.75,4.96-2.48,2.24v70.06ZM149.29,115.72c-2.74-2.12-5.5-4.21-8.27-6.26v71.73l8.27,6.87v-72.33ZM168.76.07v34.92c1.33-3.28,2.94-6.46,4.78-9.52,1.09-1.82,2.32-3.44,3.67-4.98V.07h-8.44ZM196.29.04v5.61s.03-.02.04-.02c1.83-.93,9.6-3.7,13.69-5.59h-13.73ZM160.74.07l-5.85,4.96v67.94c2.44-1.79,4.85-3.61,7.23-5.49l1.04-.82V.07h-2.42ZM182.81.04v14.76c1.18-1.09,2.41-2.13,3.74-3.12,1.35-.99,2.73-1.94,4.14-2.83V.04h-7.89ZM135.41,105.39c-2.72-1.94-5.48-3.84-8.27-5.71v69.92l8.27,6.94v-71.14ZM121.54,33.36l-4.42,3.74-3.85,3.28v117.66l.81.67,7.46,6.21V33.36ZM79.92,69.12l-8.27,7.47v45.17l2.19,2.01,6.08,5.39v-60.04ZM107.67,45.14l-.74.63-7.54,6.34v94.16l7.36,6.34.91.76V45.14ZM180.34,89.64h203.31c-9.41-4.29-20.6-6.69-30.57-7.42l-6.83-.5-5.4-.3h-163.8c.83,2.65,1.96,5.49,3.29,8.22ZM201.05,13.28c-3.88,2.34-7.5,5.11-10.64,8.22h200.14s.47-.59.47-.59c2.01-2.55,4.03-5.08,6.02-7.63h-195.99ZM350.85,141.61c-.44,1.21-1.09,2.32-1.88,3.32h63.06c.03-.3.06-.59.07-.89l.16-2.56c.1-1.6.13-3.19.11-4.77h-60.61c-.06,1.7-.35,3.38-.91,4.9ZM186.02,98.73c1.59,1.91,3.28,3.63,5.08,5.23h211.24c-2.57-3.34-5.62-6.23-9.02-8.72h-209.84c.82,1.26,1.67,2.44,2.53,3.49ZM338.78,150.53c-.57.09-1.15.15-1.74.15l-137.42.04c-.74,0-1.41-.04-2.05-.19h-1.35v7.73h213.15c.28-1,.54-2.01.76-3.04.35-1.58.71-3.14,1.03-4.69h-72.39ZM178.05,40.93c-.92,2.53-1.69,5.13-2.29,7.73h193.75c1.71-2.11,3.34-4.49,4.14-5.5l1.75-2.23h-197.35ZM174.72,54.26c-.15,1.05-.29,2.10-.39,3.13-.13,1.37-.17,2.93-.14,4.60h61.30s.01-.05.02-.07c1.07-2.95,2.68-5.19,5.50-6.73.64-.35,1.30-.65,1.97-.93h-68.27ZM185.32,27.10c-1.88,2.54-3.51,5.31-4.92,8.22h199.36s6.33-8.17,6.33-8.17l.04-.05h-200.81ZM198.85,109.55c4.13,2.42,8.29,4.43,12.91,5.99,1.86.63,3.75,1.21,5.65,1.74h191.95c-.87-2.68-2-5.25-3.37-7.73h-207.14ZM174.51,67.59c.26,2.83.67,5.69,1.15,8.22h62.02c-2.04-2.37-3.05-5.25-3.13-8.22h-60.05ZM395.45.09l-51.18-.09-66.25.08-13.24.22-7.75.20-6.48.21c-11.02.36-21.81,1.80-32.37,5.07-1.85.57-3.54,1.22-5.25,1.89h188.34c1.77-2.42,3.47-4.89,5.08-7.46l-10.90-.14ZM196.23,177.20v8.22h195.60c3.03-2.43,5.80-5.17,8.21-8.22h-203.81ZM196.23,163.86v7.73h207.62c.62-1.07,1.21-2.18,1.75-3.31.70-1.46,1.33-2.93,1.91-4.42h-211.28ZM343.89,122.89c2.96,1.39,5.41,3.72,6.69,6.82.19.45.35.92.49,1.40h61.05c-.25-2.78-.73-5.46-1.31-8.22h-66.93ZM196.23,191.02v8.22h163.46c1.20-.25,2.40-.52,3.60-.81,4.90-1.16,9.44-2.62,14.11-4.55,2.05-.85,4.04-1.81,5.97-2.86h-187.14ZM43.90.07v199.17h8.27V.07h-8.27ZM16.16.07v199.17h8.27V.07h-8.27ZM2.29.07v199.17h8.27V.07H2.29ZM154.89,120.10v72.67l4.59,4.10c.91.81,1.81,1.60,2.73,2.36h.95v-72.65l-8.27-6.49ZM168.76,130.98v68.26h8.35v-61.98c-2.82-2.02-5.58-4.10-8.35-6.27ZM185.79,143.16l-3.08-2.05v58.12h7.91v-52.88l-4.83-3.20ZM30.03.07v199.17h8.27V.07h-8.27ZM65.66,76.35l.20-8.21.19-13.44V.07h-8.27v199.17h8.27v-38.39l-.20-26.15-.21-10.89-.17-4.30-.13-2.28c-.01-.23.50-.65.71-.59v-34.68l-.08.08c-.11.11-.66,0-.64-.09.03-.08.12-.44.12-.55l.21-5.04Z"/>
    
    <!-- Text & Other Paths (Blue Fill) -->
    <path fill="#135180" d="M2.29,225.98h4.09v8.15l5.15-8.15h4.78l-6.63,10.09,7.21,10.35h-5.06l-5.43-8.01v8.01H2.29v-20.45Z"/>
    <path fill="#135180" d="M37.17,246.42l-4.12-7.81h-1.97v7.81h-4.09v-20.45h8.06c7.29,0,8.01,10.27,2,12.01l4.75,8.44h-4.63ZM31.08,234.64h3.60c2.77,0,2.77-4.58,0-4.58h-3.60v4.58Z"/>
    <path fill="#135180" d="M51.94,246.42v-20.45h4.09v20.45h-4.09Z"/>
    <path fill="#135180" d="M85.51,225.66h1.29v20.76h-4.15l.03-11.41-5.23,5.49-5.23-5.49v11.41h-4.15v-20.76h1.32l8.06,8.98,8.06-8.98Z"/>
    <path fill="#135180" d="M98.83,246.42v-20.45h4.09v20.45h-4.09Z"/>
    <path fill="#135180" d="M118.32,246.42v-16.36h-5.09v-4.06h14.27v4.06h-5.09v16.36h-4.09Z"/>
    <path fill="#135180" d="M143,225.24h.43l8.61,21.19h-4.60l-.83-2.20h-6.78l-.80,2.20h-4.63l8.61-21.19ZM145.08,240.39l-1.86-5.32-1.92,5.32h3.77Z"/>
    <path fill="#135180" d="M161.89,240.82c2.34,1.66,4.89,1.72,5.83,1.63,1.20-.09,2.23-.94,2.12-2.06-.09-1.17-.97-1.69-2.12-2.09-3.20-1.17-6.06-2.80-6.06-6.23s2.37-6.06,5.78-6.23c1.06-.06,2.46-.06,5.09.86l-.51,3.95c-2.26-.92-3.55-.89-4.17-.86-1.46.09-2.12,1.14-2.03,2.29.11,1.14,1.12,1.66,2.29,2.06,3.17,1.17,5.92,3,5.92,6.26s-2.34,6-6.18,6.21c-1.14.09-3.69-.06-6.46-1.49l.52-4.29Z"/>
    <path fill="#135180" d="M196.77,240.82c2.34,1.66,4.89,1.72,5.83,1.63,1.20-.09,2.23-.94,2.12-2.06-.09-1.17-.97-1.69-2.12-2.09-3.20-1.17-6.06-2.80-6.06-6.23s2.37-6.06,5.78-6.23c1.06-.06,2.46-.06,5.09.86l-.51,3.95c-2.26-.92-3.55-.89-4.17-.86-1.46.09-2.12,1.14-2.03,2.29.11,1.14,1.12,1.66,2.29,2.06,3.17,1.17,5.92,3,5.92,6.26s-2.35,6-6.18,6.21c-1.14.09-3.69-.06-6.46-1.49l.52-4.29Z"/>
    <path fill="#135180" d="M229.59,225.64c14.07,0,14.07,21.07,0,21.07s-14.07-21.07,0-21.07ZM229.59,229.84c-8.18,0-8.18,12.64,0,12.64s8.18-12.64,0-12.64Z"/>
    <path fill="#135180" d="M255.49,225.98v16.36h6.49v4.09h-10.58v-20.45h4.09Z"/>
    <path fill="#135180" d="M272.81,239.30v-13.33h4.09v13.30c0,4.29,6.63,4.29,6.63,0v-13.30h4.06v13.33c0,9.72-14.78,9.72-14.78,0Z"/>
    <path fill="#135180" d="M302.92,246.42v-16.36h-5.09v-4.06h14.27v4.06h-5.09v16.36h-4.09Z"/>
    <path fill="#135180" d="M322.61,246.42v-20.45h4.09v20.45h-4.09Z"/>
    <path fill="#135180" d="M348.57,225.64c14.07,0,14.07,21.07,0,21.07s-14.07-21.07,0-21.07ZM348.57,229.84c-8.18,0-8.18,12.64,0,12.64s8.18-12.64,0-12.64Z"/>
    <path fill="#135180" d="M374.47,246.42h-4.09v-20.87h1.09l10.32,12.01v-11.55h4.12v20.85h-1.09l-10.35-11.55v11.12Z"/>
    <path fill="#135180" d="M397.51,240.82c2.34,1.66,4.89,1.72,5.83,1.63,1.20-.09,2.23-.94,2.12-2.06-.08-1.17-.97-1.69-2.12-2.09-3.20-1.17-6.06-2.80-6.06-6.23s2.37-6.06,5.78-6.23c1.06-.06,2.46-.06,5.09.86l-.51,3.95c-2.26-.92-3.55-.89-4.17-.86-1.46.09-2.12,1.14-2.03,2.29.11,1.14,1.12,1.66,2.29,2.06,3.17,1.17,5.92,3,5.92,6.26s-2.35,6-6.18,6.21c-1.14.09-3.69-.06-6.46-1.49l.51-4.29Z"/>
    <rect fill="#135180" x="41.05" y="258.35" width="318.07" height=".94"/>
  </g>
</svg>
